<?xml version="1.0" encoding="UTF-8" standalone="no" ?>
<!DOCTYPE svg PUBLIC "-//W3C//DTD SVG 1.1//EN" "http://www.w3.org/Graphics/SVG/1.1/DTD/svg11.dtd">
<svg xmlns="http://www.w3.org/2000/svg" xmlns:xlink="http://www.w3.org/1999/xlink" version="1.1" width="1080" height="1080" viewBox="0 0 1080 1080" xml:space="preserve">
<desc>Created with Fabric.js 4.2.0</desc>
<defs>
</defs>
<g transform="matrix(1 0 0 1 540 540)" id="11171995-45f5-4e42-afe6-174d63111d7f"  >
</g>
<g transform="matrix(1 0 0 1 540 540)" id="53d4b765-e3a5-459b-aefa-3a6eb7177a75"  >
<rect style="stroke: none; stroke-width: 1; stroke-dasharray: none; stroke-linecap: butt; stroke-dashoffset: 0; stroke-linejoin: miter; stroke-miterlimit: 4; fill: rgb(255,255,255); fill-rule: nonzero; opacity: 1; visibility: hidden;" vector-effect="non-scaling-stroke"  x="-540" y="-540" rx="0" ry="0" width="1080" height="1080" />
</g>
<g transform="matrix(51.13 0 0 52.07 540 540)"  >
<path style="stroke: rgb(28,168,195); stroke-width: 0; stroke-dasharray: none; stroke-linecap: butt; stroke-dashoffset: 0; stroke-linejoin: miter; stroke-miterlimit: 4; fill: rgb(28,168,195); fill-rule: nonzero; opacity: 1;" vector-effect="non-scaling-stroke"  transform=" translate(-10.5, -10)" d="M 2.687 2.805 C 0.605 4.978 0 6.598 0 10 C 0 13.402 0.605 15.022 2.687 17.195 C 4.954 19.561 6.184 20 10.551 20 C 17.644 20 21 16.805 21 10.051 C 21 6.232 20.485 4.881 18.195 2.687 C 15.915 0.502 14.455 0 10.382 0 C 6.201 0 4.931 0.463 2.687 2.805 M 14.234 2.828 C 15.799 3.448 15.693 3.931 13.152 7.771 C 10.358 11.991 10.319 12.01 8.512 10.013 C 4.309 5.369 3.753 8.931 7.9 13.932 L 10.745 17.364 L 13.205 13.432 C 14.557 11.269 16.136 8.639 16.713 7.587 C 17.731 5.731 17.781 5.736 18.421 7.752 C 19.962 12.608 16.228 18 11.325 18 C 4.97 18 0.727 12.488 2.95 7.121 C 4.706 2.883 9.638 1.006 14.234 2.828" stroke-linecap="round" />
</g>
</svg>